<svg version="1.1" id="Layer_1" xmlns="http://www.w3.org/2000/svg" xmlns:xlink="http://www.w3.org/1999/xlink" x="0px" y="0px"
	 width="100%" viewBox="0 0 1168 332" enable-background="new 0 0 1168 332" xml:space="preserve">
<path fill="rgba(124,240,10,0.5)" opacity="1.000000" stroke="none" 
	d="
M839.000000,333.000000 
	C559.333313,333.000000 280.166656,333.000000 1.000000,333.000000 
	C1.000000,222.333328 1.000000,111.666664 1.000000,1.000000 
	C390.333344,1.000000 779.666687,1.000000 1169.000000,1.000000 
	C1169.000000,111.666664 1169.000000,222.333328 1169.000000,333.000000 
	C1059.166626,333.000000 949.333313,333.000000 839.000000,333.000000 
M1042.002808,168.549713 
	C1046.553711,179.243088 1050.462769,190.273743 1055.850708,200.527237 
	C1060.483887,209.344284 1059.696411,217.187134 1055.353027,225.388397 
	C1055.275513,225.534851 1055.210327,225.687958 1055.140869,225.838654 
	C1050.399048,236.124619 1046.472656,237.292618 1037.056519,231.241669 
	C1036.874390,231.124619 1036.520752,231.274216 1036.093262,231.313568 
	C1034.130737,236.886795 1032.158325,242.488297 1030.228882,247.967880 
	C1041.702515,258.277527 1052.119751,259.303741 1061.291626,249.982712 
	C1066.073608,245.123016 1070.065918,238.994522 1072.845337,232.741425 
	C1084.845581,205.743805 1096.269287,178.489975 1107.873535,151.316818 
	C1108.158081,150.650208 1108.099609,149.837067 1108.237671,148.824905 
	C1102.078125,148.824905 1096.248657,148.997040 1090.436523,148.755829 
	C1087.300903,148.625687 1085.866577,149.652298 1084.680786,152.650879 
	C1080.525146,163.159561 1075.959351,173.506119 1071.205322,184.726532 
	C1066.584839,173.671982 1062.155762,163.493591 1058.115112,153.163300 
	C1056.832153,149.883408 1055.287354,148.591888 1051.653687,148.721329 
	C1044.875610,148.962769 1038.010986,149.126938 1031.301392,148.326111 
	C1023.525940,147.398026 1016.380493,147.612366 1010.261536,153.178421 
	C1009.972351,153.441483 1009.485535,153.487335 1009.045349,153.651245 
	C1008.899109,152.035019 1008.769287,150.600388 1008.641602,149.189392 
	C1001.303894,149.189392 994.258789,149.189392 987.333252,149.189392 
	C987.333252,173.292725 987.333252,197.030472 987.333252,220.778107 
	C994.563477,220.778107 1001.492981,220.778107 1008.859558,220.778107 
	C1008.859558,218.937332 1008.856567,217.316406 1008.860046,215.695496 
	C1008.886841,203.200684 1008.748535,190.702560 1008.996277,178.212112 
	C1009.186218,168.638306 1014.341064,163.940796 1023.955933,164.239319 
	C1026.492676,164.318085 1029.006226,165.138214 1031.629639,165.636765 
	C1032.537964,161.043396 1033.399658,156.685791 1034.513306,151.054199 
	C1037.301636,157.507385 1039.530640,162.665848 1042.002808,168.549713 
M384.715881,148.550766 
	C372.174622,146.707108 360.513245,148.354156 350.694000,157.139099 
	C337.912201,144.479523 324.060211,145.495987 309.571381,154.258545 
	C309.323669,152.218201 309.130554,150.627899 308.951019,149.149109 
	C301.782288,149.149109 294.879303,149.149109 287.967072,149.149109 
	C287.967072,173.236908 287.967072,197.000061 287.967072,220.756516 
	C295.136475,220.756516 302.061493,220.756516 309.278839,220.756516 
	C309.278839,207.865570 309.230499,195.220276 309.314453,182.575867 
	C309.334259,179.593781 309.492340,176.547852 310.122742,173.647812 
	C311.517303,167.232742 316.721252,163.757935 323.936279,164.031754 
	C330.409973,164.277451 333.402405,167.040131 334.160248,174.507370 
	C334.746735,180.285797 334.719208,186.136414 334.773499,191.956741 
	C334.862885,201.545502 334.797729,211.135696 334.797729,220.793579 
	C342.298462,220.793579 349.226288,220.793579 356.622559,220.793579 
	C356.622559,209.300262 356.587402,198.011444 356.641479,186.723053 
	C356.660614,182.730148 356.562775,178.691849 357.108734,174.756180 
	C358.070831,167.820541 363.145355,163.950958 370.490906,164.013565 
	C377.163300,164.070419 380.459412,166.875931 381.194183,174.553680 
	C381.889832,181.822403 381.757751,189.177109 381.842926,196.495697 
	C381.937073,204.584000 381.864441,212.674210 381.864441,220.783493 
	C389.391296,220.783493 396.319641,220.783493 402.703430,220.783493 
	C402.703430,203.128326 403.312408,185.669891 402.469482,168.281830 
	C401.982910,158.245102 396.238739,150.882431 384.715881,148.550766 
M204.494537,168.871414 
	C209.246841,168.871414 213.999146,168.871414 218.702164,168.871414 
	C219.153809,145.382645 200.338882,120.917160 170.958038,121.540733 
	C139.590378,122.206497 122.201241,148.638092 124.334312,172.254379 
	C127.145927,203.383286 154.913116,217.646805 171.916489,215.196426 
	C171.916489,199.927170 171.916489,184.556259 171.916489,168.871262 
	C182.876770,168.871262 193.186386,168.871262 204.494537,168.871414 
M777.981079,193.500000 
	C777.981079,202.594833 777.981079,211.689667 777.981079,220.830750 
	C785.520996,220.830750 792.476807,220.830750 799.439209,220.830750 
	C799.678223,219.598160 799.885010,218.531998 800.102539,217.410278 
	C815.377441,225.503677 830.761169,222.871445 842.273010,210.317673 
	C852.990295,198.630341 854.515686,177.304520 845.392334,163.253464 
	C840.505676,155.727448 833.729065,150.717361 824.739502,148.734131 
	C815.946594,146.794296 807.778320,148.151077 799.627319,153.051315 
	C799.627319,140.024292 799.627319,127.743340 799.627319,115.294403 
	C792.272888,115.294403 785.231079,115.294403 777.981079,115.294403 
	C777.981079,141.228439 777.981079,166.864227 777.981079,193.500000 
M909.195984,205.794205 
	C910.541565,211.360748 913.055786,216.274811 918.583496,218.538925 
	C929.283264,222.921432 940.046387,224.372818 950.491638,217.593628 
	C950.871399,217.347183 951.356018,217.262268 951.880493,217.069473 
	C952.102722,218.417252 952.302612,219.629242 952.494812,220.795105 
	C959.757751,220.795105 966.687622,220.795105 973.891174,220.795105 
	C973.891174,203.492859 974.135620,186.392685 973.773010,169.305389 
	C973.624390,162.299301 969.830933,156.779694 963.876221,152.850281 
	C949.378845,143.283798 925.056763,147.169952 913.729370,161.238220 
	C918.910950,164.219620 924.034180,167.167404 929.135010,170.102341 
	C934.860352,165.118347 941.213806,164.038528 947.744751,167.188339 
	C949.884583,168.220383 951.077698,171.215271 952.703796,173.312531 
	C947.362610,174.486725 943.223572,174.377655 939.091858,174.505539 
	C920.841125,175.070450 906.242065,185.031998 909.195984,205.794205 
M167.081055,231.328247 
	C156.962646,230.692505 147.689529,227.698502 138.885345,222.515472 
	C105.645607,202.947144 98.292297,155.528610 124.314987,127.046600 
	C135.926620,114.337616 150.337265,107.323723 167.531219,105.914520 
	C168.952179,105.798058 171.350281,104.459930 171.441467,103.511322 
	C171.862442,99.131859 171.627258,94.689331 171.627258,90.311218 
	C130.960648,89.468979 94.762405,122.437431 92.772163,165.069305 
	C90.557854,212.501129 130.256271,248.289291 171.684448,247.120163 
	C171.684448,243.382416 171.480011,239.596909 171.749161,235.845367 
	C171.964447,232.844360 170.829407,231.500656 167.081055,231.328247 
M485.057556,220.811691 
	C485.284302,219.552734 485.706299,218.294144 485.708710,217.034744 
	C485.749573,195.723221 485.742645,174.411606 485.727631,153.100006 
	C485.726715,151.810089 485.569824,150.520279 485.472809,149.035767 
	C478.295410,149.035767 471.376038,149.035767 463.968140,149.035767 
	C463.968140,159.090652 464.010590,169.031448 463.950653,178.971619 
	C463.919586,184.124664 464.176208,189.342041 463.468781,194.414017 
	C462.362518,202.345642 456.792297,206.511963 449.212158,205.898727 
	C442.308563,205.340240 439.055145,201.724243 438.863922,193.238068 
	C438.571472,180.257843 438.700714,167.268082 438.652985,154.282379 
	C438.646576,152.543839 438.652069,150.805283 438.652069,149.132767 
	C430.974976,149.132767 424.071533,149.132767 416.929535,149.132767 
	C416.929535,156.745102 416.800385,164.051834 416.960388,171.352249 
	C417.189789,181.818863 417.022827,192.346680 418.147369,202.726776 
	C419.325745,213.603821 425.641968,219.683792 436.397949,221.586365 
	C446.197876,223.319794 455.570099,222.223343 463.898926,214.811050 
	C463.898926,217.200623 463.898926,218.924103 463.898926,220.992035 
	C470.859039,220.992035 477.495880,220.992035 485.057556,220.811691 
M532.871887,169.480560 
	C534.856018,171.151413 536.840149,172.822250 538.219788,173.984085 
	C542.850891,169.356430 547.371826,164.838898 552.153931,160.060410 
	C549.443726,158.012726 546.585022,155.432663 543.347961,153.479858 
	C529.440552,145.090042 513.147095,146.181702 503.124786,155.967041 
	C493.518402,165.346298 495.127655,180.192474 506.644043,187.014038 
	C509.903198,188.944534 513.427673,190.549896 517.010864,191.778564 
	C521.227356,193.224426 525.716797,193.877518 529.925537,195.341232 
	C531.378845,195.846680 533.420349,197.894440 533.276062,198.983734 
	C533.071899,200.525177 531.116516,202.996170 529.863586,203.024414 
	C525.726440,203.117706 521.321350,202.980743 517.494507,201.607498 
	C514.259644,200.446701 511.685547,197.444702 509.323853,195.642792 
	C504.669769,200.219406 500.084045,204.728775 495.487152,209.249146 
	C507.495728,223.030029 529.042725,226.283798 544.172852,216.651474 
	C554.923523,209.807281 558.056213,190.827164 543.492981,183.818146 
	C539.483948,181.888672 535.237427,180.427185 531.035400,178.932068 
	C527.601013,177.710068 523.875671,177.144485 520.663330,175.525909 
	C519.004456,174.690094 517.008728,171.972672 517.287720,170.510208 
	C517.609497,168.823227 520.322937,166.337112 521.906250,166.402908 
	C525.386841,166.547516 528.809814,168.080017 532.871887,169.480560 
M646.550354,174.478775 
	C651.601868,170.219299 656.653320,165.959808 661.682800,161.718826 
	C652.324280,149.379990 634.148804,144.517548 618.503296,149.888702 
	C603.377563,155.081406 593.265625,169.106812 593.403198,184.702911 
	C593.556824,202.111588 603.169983,215.208740 619.729553,220.569992 
	C634.321716,225.294296 653.093628,220.043533 661.491089,208.639023 
	C656.652649,204.278214 651.787781,199.893616 646.777344,195.377808 
	C642.912476,202.624512 637.182007,204.987442 629.865234,204.295700 
	C622.813477,203.629013 618.541138,199.282288 616.722595,193.052231 
	C615.515259,188.916122 615.311707,184.174149 615.932190,179.887726 
	C616.966125,172.745987 621.380615,167.554977 628.599670,166.167953 
	C635.844666,164.775909 642.097290,167.098541 646.550354,174.478775 
M165.549103,278.850037 
	C167.464935,278.850037 169.380768,278.850037 171.679993,278.850037 
	C171.679993,274.452179 171.580185,270.642578 171.713181,266.841125 
	C171.810684,264.054169 170.651596,263.046082 167.903915,262.960724 
	C151.624313,262.454865 136.494949,257.932678 122.587700,249.468201 
	C101.983406,236.927658 87.963387,219.080399 81.094406,196.014816 
	C78.521797,187.376221 77.573395,178.253922 75.843536,169.136505 
	C71.316414,169.136505 66.403801,169.136505 61.503418,169.136505 
	C59.978661,220.665512 101.700272,274.868683 165.549103,278.850037 
M731.049683,149.500000 
	C731.049683,137.110458 731.049683,124.720909 731.049683,112.450943 
	C723.371826,112.450943 716.458557,112.450943 709.445312,112.450943 
	C709.445312,148.741547 709.445312,184.737274 709.445312,220.674561 
	C716.808105,220.674561 723.863708,220.674561 731.049561,220.674561 
	C731.049561,197.062454 731.049561,173.781219 731.049683,149.500000 
M908.981201,154.775284 
	C909.200806,153.184860 909.420410,151.594452 909.689453,149.645920 
	C900.280212,146.167404 891.989319,147.294098 884.176086,154.232391 
	C884.061340,152.174103 883.976013,150.644196 883.886841,149.045410 
	C876.610901,149.045410 869.680603,149.045410 862.599487,149.045410 
	C862.599487,173.120453 862.599487,196.970169 862.599487,220.743805 
	C869.890564,220.743805 876.817017,220.743805 884.061218,220.743805 
	C884.061218,206.688950 883.899780,192.893509 884.113281,179.103897 
	C884.278320,168.440582 890.059387,163.274063 900.293884,164.235916 
	C902.386169,164.432556 904.422119,165.227707 906.818298,165.831161 
	C907.515137,162.376495 908.199768,158.982208 908.981201,154.775284 
M562.081665,184.499985 
	C562.081665,196.576996 562.081665,208.654007 562.081665,220.638657 
	C569.706360,220.638657 576.748047,220.638657 583.633789,220.638657 
	C583.633789,196.555496 583.633789,172.840744 583.633789,149.217133 
	C576.308289,149.217133 569.276428,149.217133 562.081665,149.217133 
	C562.081665,160.906830 562.081665,172.203400 562.081665,184.499985 
M765.677673,212.423126 
	C765.677673,191.320526 765.677673,170.217911 765.677673,149.070770 
	C758.133484,149.070770 751.211060,149.070770 744.121338,149.070770 
	C744.121338,173.068161 744.121338,196.814911 744.121338,220.665436 
	C751.341187,220.665436 758.369995,220.665436 765.677673,220.665436 
	C765.677673,218.015060 765.677673,215.704849 765.677673,212.423126 
M759.766541,118.564827 
	C757.004395,118.362404 754.159363,117.639603 751.497009,118.063744 
	C745.595398,119.003944 741.973206,125.166504 743.577637,130.758057 
	C744.915100,135.419357 749.303589,138.810333 754.227112,138.986893 
	C759.128418,139.162643 763.957214,135.994080 765.518738,131.577484 
	C767.214905,126.780441 765.533875,122.590584 759.766541,118.564827 
M582.144165,134.577911 
	C585.239624,128.990952 584.880005,124.226723 581.086182,120.562538 
	C577.571655,117.168091 570.512817,116.595978 566.284363,119.362831 
	C562.230164,122.015640 560.517090,126.935333 562.046570,131.532547 
	C564.615173,139.252472 574.124573,141.002075 582.144165,134.577911 
z"/>
<path fill="#141414" opacity="1.000000" stroke="none" 
	d="
M1041.881104,168.187012 
	C1039.530640,162.665848 1037.301636,157.507385 1034.513306,151.054199 
	C1033.399658,156.685791 1032.537964,161.043396 1031.629639,165.636765 
	C1029.006226,165.138214 1026.492676,164.318085 1023.955933,164.239319 
	C1014.341064,163.940796 1009.186218,168.638306 1008.996277,178.212112 
	C1008.748535,190.702560 1008.886841,203.200684 1008.860046,215.695496 
	C1008.856567,217.316406 1008.859558,218.937332 1008.859558,220.778107 
	C1001.492981,220.778107 994.563477,220.778107 987.333252,220.778107 
	C987.333252,197.030472 987.333252,173.292725 987.333252,149.189392 
	C994.258789,149.189392 1001.303894,149.189392 1008.641602,149.189392 
	C1008.769287,150.600388 1008.899109,152.035019 1009.045349,153.651245 
	C1009.485535,153.487335 1009.972351,153.441483 1010.261536,153.178421 
	C1016.380493,147.612366 1023.525940,147.398026 1031.301392,148.326111 
	C1038.010986,149.126938 1044.875610,148.962769 1051.653687,148.721329 
	C1055.287354,148.591888 1056.832153,149.883408 1058.115112,153.163300 
	C1062.155762,163.493591 1066.584839,173.671982 1071.205322,184.726532 
	C1075.959351,173.506119 1080.525146,163.159561 1084.680786,152.650879 
	C1085.866577,149.652298 1087.300903,148.625687 1090.436523,148.755829 
	C1096.248657,148.997040 1102.078125,148.824905 1108.237671,148.824905 
	C1108.099609,149.837067 1108.158081,150.650208 1107.873535,151.316818 
	C1096.269287,178.489975 1084.845581,205.743805 1072.845337,232.741425 
	C1070.065918,238.994522 1066.073608,245.123016 1061.291626,249.982712 
	C1052.119751,259.303741 1041.702515,258.277527 1030.228882,247.967880 
	C1032.158325,242.488297 1034.130737,236.886795 1036.093262,231.313568 
	C1036.520752,231.274216 1036.874390,231.124619 1037.056519,231.241669 
	C1046.472656,237.292618 1050.399048,236.124619 1055.140869,225.838654 
	C1055.210327,225.687958 1055.275513,225.534851 1055.353027,225.388397 
	C1059.696411,217.187134 1060.483887,209.344284 1055.850708,200.527237 
	C1050.462769,190.273743 1046.553711,179.243088 1041.881104,168.187012 
z"/>
<path fill="#141414" opacity="1.000000" stroke="none" 
	d="
M385.130493,148.648010 
	C396.238739,150.882431 401.982910,158.245102 402.469482,168.281830 
	C403.312408,185.669891 402.703430,203.128326 402.703430,220.783493 
	C396.319641,220.783493 389.391296,220.783493 381.864441,220.783493 
	C381.864441,212.674210 381.937073,204.584000 381.842926,196.495697 
	C381.757751,189.177109 381.889832,181.822403 381.194183,174.553680 
	C380.459412,166.875931 377.163300,164.070419 370.490906,164.013565 
	C363.145355,163.950958 358.070831,167.820541 357.108734,174.756180 
	C356.562775,178.691849 356.660614,182.730148 356.641479,186.723053 
	C356.587402,198.011444 356.622559,209.300262 356.622559,220.793579 
	C349.226288,220.793579 342.298462,220.793579 334.797729,220.793579 
	C334.797729,211.135696 334.862885,201.545502 334.773499,191.956741 
	C334.719208,186.136414 334.746735,180.285797 334.160248,174.507370 
	C333.402405,167.040131 330.409973,164.277451 323.936279,164.031754 
	C316.721252,163.757935 311.517303,167.232742 310.122742,173.647812 
	C309.492340,176.547852 309.334259,179.593781 309.314453,182.575867 
	C309.230499,195.220276 309.278839,207.865570 309.278839,220.756516 
	C302.061493,220.756516 295.136475,220.756516 287.967072,220.756516 
	C287.967072,197.000061 287.967072,173.236908 287.967072,149.149109 
	C294.879303,149.149109 301.782288,149.149109 308.951019,149.149109 
	C309.130554,150.627899 309.323669,152.218201 309.571381,154.258545 
	C324.060211,145.495987 337.912201,144.479523 350.694000,157.139099 
	C360.513245,148.354156 372.174622,146.707108 385.130493,148.648010 
z"/>
<path fill="#EC5D80" opacity="1.000000" stroke="none" 
	d="
M203.995270,168.871338 
	C193.186386,168.871262 182.876770,168.871262 171.916489,168.871262 
	C171.916489,184.556259 171.916489,199.927170 171.916489,215.196426 
	C154.913116,217.646805 127.145927,203.383286 124.334312,172.254379 
	C122.201241,148.638092 139.590378,122.206497 170.958038,121.540733 
	C200.338882,120.917160 219.153809,145.382645 218.702164,168.871414 
	C213.999146,168.871414 209.246841,168.871414 203.995270,168.871338 
z"/>
<path fill="#131313" opacity="1.000000" stroke="none" 
	d="
M777.981079,193.000000 
	C777.981079,166.864227 777.981079,141.228439 777.981079,115.294403 
	C785.231079,115.294403 792.272888,115.294403 799.627319,115.294403 
	C799.627319,127.743340 799.627319,140.024292 799.627319,153.051315 
	C807.778320,148.151077 815.946594,146.794296 824.739502,148.734131 
	C833.729065,150.717361 840.505676,155.727448 845.392334,163.253464 
	C854.515686,177.304520 852.990295,198.630341 842.273010,210.317673 
	C830.761169,222.871445 815.377441,225.503677 800.102539,217.410278 
	C799.885010,218.531998 799.678223,219.598160 799.439209,220.830750 
	C792.476807,220.830750 785.520996,220.830750 777.981079,220.830750 
	C777.981079,211.689667 777.981079,202.594833 777.981079,193.000000 
M823.553894,168.958237 
	C815.040466,161.690155 805.885193,163.047226 800.219421,172.584717 
	C795.296387,180.872040 795.588806,189.350830 800.193542,197.637924 
	C802.901672,202.511597 806.936584,205.980072 812.839661,205.942566 
	C819.006714,205.903381 823.577698,202.694473 826.431091,197.375549 
	C831.656189,187.635605 830.699036,178.286026 823.553894,168.958237 
z"/>
<path fill="#131313" opacity="1.000000" stroke="none" 
	d="
M909.131226,205.362625 
	C906.242065,185.031998 920.841125,175.070450 939.091858,174.505539 
	C943.223572,174.377655 947.362610,174.486725 952.703796,173.312531 
	C951.077698,171.215271 949.884583,168.220383 947.744751,167.188339 
	C941.213806,164.038528 934.860352,165.118347 929.135010,170.102341 
	C924.034180,167.167404 918.910950,164.219620 913.729370,161.238220 
	C925.056763,147.169952 949.378845,143.283798 963.876221,152.850281 
	C969.830933,156.779694 973.624390,162.299301 973.773010,169.305389 
	C974.135620,186.392685 973.891174,203.492859 973.891174,220.795105 
	C966.687622,220.795105 959.757751,220.795105 952.494812,220.795105 
	C952.302612,219.629242 952.102722,218.417252 951.880493,217.069473 
	C951.356018,217.262268 950.871399,217.347183 950.491638,217.593628 
	C940.046387,224.372818 929.283264,222.921432 918.583496,218.538925 
	C913.055786,216.274811 910.541565,211.360748 909.131226,205.362625 
M935.568298,191.532440 
	C931.760681,193.176147 929.744812,195.980087 930.464172,200.186554 
	C931.250427,204.783707 935.021912,205.562897 938.750000,205.907867 
	C948.353333,206.796570 953.114502,201.323273 951.715454,191.215759 
	C946.595520,191.215759 941.475586,191.215759 935.568298,191.532440 
z"/>
<path fill="#ED6082" opacity="1.000000" stroke="none" 
	d="
M167.515091,231.358307 
	C170.829407,231.500656 171.964447,232.844360 171.749161,235.845367 
	C171.480011,239.596909 171.684448,243.382416 171.684448,247.120163 
	C130.256271,248.289291 90.557854,212.501129 92.772163,165.069305 
	C94.762405,122.437431 130.960648,89.468979 171.627258,90.311218 
	C171.627258,94.689331 171.862442,99.131859 171.441467,103.511322 
	C171.350281,104.459930 168.952179,105.798058 167.531219,105.914520 
	C150.337265,107.323723 135.926620,114.337616 124.314987,127.046600 
	C98.292297,155.528610 105.645607,202.947144 138.885345,222.515472 
	C147.689529,227.698502 156.962646,230.692505 167.515091,231.358307 
z"/>
<path fill="#151515" opacity="1.000000" stroke="none" 
	d="
M484.595123,220.901855 
	C477.495880,220.992035 470.859039,220.992035 463.898926,220.992035 
	C463.898926,218.924103 463.898926,217.200623 463.898926,214.811050 
	C455.570099,222.223343 446.197876,223.319794 436.397949,221.586365 
	C425.641968,219.683792 419.325745,213.603821 418.147369,202.726776 
	C417.022827,192.346680 417.189789,181.818863 416.960388,171.352249 
	C416.800385,164.051834 416.929535,156.745102 416.929535,149.132767 
	C424.071533,149.132767 430.974976,149.132767 438.652069,149.132767 
	C438.652069,150.805283 438.646576,152.543839 438.652985,154.282379 
	C438.700714,167.268082 438.571472,180.257843 438.863922,193.238068 
	C439.055145,201.724243 442.308563,205.340240 449.212158,205.898727 
	C456.792297,206.511963 462.362518,202.345642 463.468781,194.414017 
	C464.176208,189.342041 463.919586,184.124664 463.950653,178.971619 
	C464.010590,169.031448 463.968140,159.090652 463.968140,149.035767 
	C471.376038,149.035767 478.295410,149.035767 485.472809,149.035767 
	C485.569824,150.520279 485.726715,151.810089 485.727631,153.100006 
	C485.742645,174.411606 485.749573,195.723221 485.708710,217.034744 
	C485.706299,218.294144 485.284302,219.552734 484.595123,220.901855 
z"/>
<path fill="#141414" opacity="1.000000" stroke="none" 
	d="
M532.564087,169.263275 
	C528.809814,168.080017 525.386841,166.547516 521.906250,166.402908 
	C520.322937,166.337112 517.609497,168.823227 517.287720,170.510208 
	C517.008728,171.972672 519.004456,174.690094 520.663330,175.525909 
	C523.875671,177.144485 527.601013,177.710068 531.035400,178.932068 
	C535.237427,180.427185 539.483948,181.888672 543.492981,183.818146 
	C558.056213,190.827164 554.923523,209.807281 544.172852,216.651474 
	C529.042725,226.283798 507.495728,223.030029 495.487152,209.249146 
	C500.084045,204.728775 504.669769,200.219406 509.323853,195.642792 
	C511.685547,197.444702 514.259644,200.446701 517.494507,201.607498 
	C521.321350,202.980743 525.726440,203.117706 529.863586,203.024414 
	C531.116516,202.996170 533.071899,200.525177 533.276062,198.983734 
	C533.420349,197.894440 531.378845,195.846680 529.925537,195.341232 
	C525.716797,193.877518 521.227356,193.224426 517.010864,191.778564 
	C513.427673,190.549896 509.903198,188.944534 506.644043,187.014038 
	C495.127655,180.192474 493.518402,165.346298 503.124786,155.967041 
	C513.147095,146.181702 529.440552,145.090042 543.347961,153.479858 
	C546.585022,155.432663 549.443726,158.012726 552.153931,160.060410 
	C547.371826,164.838898 542.850891,169.356430 538.219788,173.984085 
	C536.840149,172.822250 534.856018,171.151413 532.564087,169.263275 
z"/>
<path fill="#141414" opacity="1.000000" stroke="none" 
	d="
M646.296509,174.185272 
	C642.097290,167.098541 635.844666,164.775909 628.599670,166.167953 
	C621.380615,167.554977 616.966125,172.745987 615.932190,179.887726 
	C615.311707,184.174149 615.515259,188.916122 616.722595,193.052231 
	C618.541138,199.282288 622.813477,203.629013 629.865234,204.295700 
	C637.182007,204.987442 642.912476,202.624512 646.777344,195.377808 
	C651.787781,199.893616 656.652649,204.278214 661.491089,208.639023 
	C653.093628,220.043533 634.321716,225.294296 619.729553,220.569992 
	C603.169983,215.208740 593.556824,202.111588 593.403198,184.702911 
	C593.265625,169.106812 603.377563,155.081406 618.503296,149.888702 
	C634.148804,144.517548 652.324280,149.379990 661.682800,161.718826 
	C656.653320,165.959808 651.601868,170.219299 646.296509,174.185272 
z"/>
<path fill="#EC5F82" opacity="1.000000" stroke="none" 
	d="
M165.090576,278.793640 
	C101.700272,274.868683 59.978661,220.665512 61.503418,169.136505 
	C66.403801,169.136505 71.316414,169.136505 75.843536,169.136505 
	C77.573395,178.253922 78.521797,187.376221 81.094406,196.014816 
	C87.963387,219.080399 101.983406,236.927658 122.587700,249.468201 
	C136.494949,257.932678 151.624313,262.454865 167.903915,262.960724 
	C170.651596,263.046082 171.810684,264.054169 171.713181,266.841125 
	C171.580185,270.642578 171.679993,274.452179 171.679993,278.850037 
	C169.380768,278.850037 167.464935,278.850037 165.090576,278.793640 
z"/>
<path fill="#141414" opacity="1.000000" stroke="none" 
	d="
M731.049622,150.000000 
	C731.049561,173.781219 731.049561,197.062454 731.049561,220.674561 
	C723.863708,220.674561 716.808105,220.674561 709.445312,220.674561 
	C709.445312,184.737274 709.445312,148.741547 709.445312,112.450943 
	C716.458557,112.450943 723.371826,112.450943 731.049683,112.450943 
	C731.049683,124.720909 731.049683,137.110458 731.049622,150.000000 
z"/>
<path fill="#151515" opacity="1.000000" stroke="none" 
	d="
M908.932861,155.181610 
	C908.199768,158.982208 907.515137,162.376495 906.818298,165.831161 
	C904.422119,165.227707 902.386169,164.432556 900.293884,164.235916 
	C890.059387,163.274063 884.278320,168.440582 884.113281,179.103897 
	C883.899780,192.893509 884.061218,206.688950 884.061218,220.743805 
	C876.817017,220.743805 869.890564,220.743805 862.599487,220.743805 
	C862.599487,196.970169 862.599487,173.120453 862.599487,149.045410 
	C869.680603,149.045410 876.610901,149.045410 883.886841,149.045410 
	C883.976013,150.644196 884.061340,152.174103 884.176086,154.232391 
	C891.989319,147.294098 900.280212,146.167404 909.689453,149.645920 
	C909.420410,151.594452 909.200806,153.184860 908.932861,155.181610 
z"/>
<path fill="#141414" opacity="1.000000" stroke="none" 
	d="
M562.081665,183.999969 
	C562.081665,172.203400 562.081665,160.906830 562.081665,149.217133 
	C569.276428,149.217133 576.308289,149.217133 583.633789,149.217133 
	C583.633789,172.840744 583.633789,196.555496 583.633789,220.638657 
	C576.748047,220.638657 569.706360,220.638657 562.081665,220.638657 
	C562.081665,208.654007 562.081665,196.576996 562.081665,183.999969 
z"/>
<path fill="#151515" opacity="1.000000" stroke="none" 
	d="
M765.677673,212.908875 
	C765.677673,215.704849 765.677673,218.015060 765.677673,220.665436 
	C758.369995,220.665436 751.341187,220.665436 744.121338,220.665436 
	C744.121338,196.814911 744.121338,173.068161 744.121338,149.070770 
	C751.211060,149.070770 758.133484,149.070770 765.677673,149.070770 
	C765.677673,170.217911 765.677673,191.320526 765.677673,212.908875 
z"/>
<path fill="#161616" opacity="1.000000" stroke="none" 
	d="
M760.101562,118.737656 
	C765.533875,122.590584 767.214905,126.780441 765.518738,131.577484 
	C763.957214,135.994080 759.128418,139.162643 754.227112,138.986893 
	C749.303589,138.810333 744.915100,135.419357 743.577637,130.758057 
	C741.973206,125.166504 745.595398,119.003944 751.497009,118.063744 
	C754.159363,117.639603 757.004395,118.362404 760.101562,118.737656 
z"/>
<path fill="#151515" opacity="1.000000" stroke="none" 
	d="
M581.900146,134.859161 
	C574.124573,141.002075 564.615173,139.252472 562.046570,131.532547 
	C560.517090,126.935333 562.230164,122.015640 566.284363,119.362831 
	C570.512817,116.595978 577.571655,117.168091 581.086182,120.562538 
	C584.880005,124.226723 585.239624,128.990952 581.900146,134.859161 
z"/>
<path fill="#FCFCFC" opacity="1.000000" stroke="none" 
	d="
M823.804443,169.223511 
	C830.699036,178.286026 831.656189,187.635605 826.431091,197.375549 
	C823.577698,202.694473 819.006714,205.903381 812.839661,205.942566 
	C806.936584,205.980072 802.901672,202.511597 800.193542,197.637924 
	C795.588806,189.350830 795.296387,180.872040 800.219421,172.584717 
	C805.885193,163.047226 815.040466,161.690155 823.804443,169.223511 
z"/>
<path fill="#FAFAFA" opacity="1.000000" stroke="none" 
	d="
M935.961975,191.374100 
	C941.475586,191.215759 946.595520,191.215759 951.715576,191.212097 
	C953.114502,201.323273 948.353333,206.796570 938.750000,205.907867 
	C935.021912,205.562897 931.250427,204.783707 930.464172,200.186554 
	C929.744812,195.980087 931.760681,193.176147 935.961975,191.374100 
z"/>
</svg>